<svg xmlns="http://www.w3.org/2000/svg" width="560.001" height="214.357" viewBox="0 0 560.001 214.357">
  <g id="inlimbo-light-gray-on-white" transform="translate(-607.004 -434.796)">
    <g id="Subtraction_3" data-name="Subtraction 3" transform="translate(607.006 434.793)" fill="#fff" stroke-linecap="round" stroke-linejoin="round">
      <path d="M 428.2817993164062 208.0014343261719 L 8.997293472290039 208.0005187988281 C 5.688864231109619 208.0005187988281 2.997292995452881 205.3089447021484 2.997292995452881 202.0005187988281 L 2.997292995452881 9.00273323059082 C 2.997292995452881 5.694304943084717 5.688864231109619 3.002661943435669 8.997293472290039 3.002661943435669 L 550.9979858398438 3.002661943435669 C 554.3064575195312 3.002661943435669 556.9979858398438 5.694304943084717 556.9979858398438 9.00273323059082 L 556.9979858398438 202.0005187988281 C 556.9979858398438 205.3089447021484 554.3064575195312 208.0005187988281 550.9979858398438 208.0005187988281 L 541.2675170898438 208.0005187988281 L 541.2675170898438 203.9529266357422 L 546.9678344726562 203.952880859375 C 550.2765502929688 203.952880859375 552.9683837890625 201.2614440917969 552.9683837890625 197.9532318115234 L 552.9683837890625 13.05001926422119 C 552.9683837890625 9.741805076599121 550.2765502929688 7.050375938415527 546.9678344726562 7.050375938415527 L 13.02750682830811 7.050375938415527 C 9.719221115112305 7.050375938415527 7.027792930603027 9.741805076599121 7.027792930603027 13.05001926422119 L 7.027792930603027 197.9532318115234 C 7.027792930603027 201.2614440917969 9.719221115112305 203.952880859375 13.02750682830811 203.952880859375 L 428.2817993164062 203.952880859375 L 428.2817993164062 208.0014343261719 Z" stroke="none"/>
      <path d="M 431.2817993164062 211.0015563964844 L 431.2809448242188 211.0014801025391 L 8.997265815734863 211.0005493164062 C 4.034650325775146 211.0005493164062 -0.002734468784183264 206.9631652832031 -0.002734468784183264 202.0005493164062 L -0.002734468784183264 9.002705574035645 C -0.002734468784183264 4.040090560913086 4.034650325775146 0.002705838764086366 8.997265815734863 0.002705838764086366 L 550.9979858398438 0.002705838764086366 C 555.9606323242188 0.002705838764086366 559.9979858398438 4.040090560913086 559.9979858398438 9.002705574035645 L 559.9979858398438 202.0005493164062 C 559.9979858398438 206.9631652832031 555.9606323242188 211.0005493164062 550.9979858398438 211.0005493164062 L 538.2675170898438 211.0005493164062 L 538.2675170898438 200.9529418945312 L 546.9678955078125 200.9528656005859 C 548.6224365234375 200.9528656005859 549.9684448242188 199.6072387695312 549.9684448242188 197.9532470703125 L 549.9684448242188 13.05001354217529 C 549.9684448242188 11.3960132598877 548.6224365234375 10.0503978729248 546.9678955078125 10.0503978729248 L 13.02749633789062 10.0503978729248 C 11.37341976165771 10.0503978729248 10.02780437469482 11.3960132598877 10.02780437469482 13.05001354217529 L 10.02780437469482 197.9532470703125 C 10.02780437469482 199.6072387695312 11.37341976165771 200.9528656005859 13.02749633789062 200.9528656005859 L 431.2817993164062 200.9528656005859 L 431.2817993164062 211.0015563964844 Z" stroke="none" fill="#a2a2a2"/>
    </g>
    <path id="Union_1" data-name="Union 1" d="M417.942,156.818a11.221,11.221,0,0,1,.161-2.116l2.737.184a9.4,9.4,0,0,0-.115,1.679c0,1.449.552,1.863,1.334,1.863a1.292,1.292,0,0,0,1.219-1.449v-.253c0-1.265-.6-2.139-2.438-3.91-1.84-1.748-2.852-3.219-2.852-5.175v-.16a4.358,4.358,0,0,1,4.577-4.37,4.054,4.054,0,0,1,4.393,4.347,15.132,15.132,0,0,1-.139,2.093l-2.691-.185a10.337,10.337,0,0,0,.139-1.656c0-1.495-.6-1.84-1.4-1.84a1.148,1.148,0,0,0-1.242,1.31v.115c0,.966.506,1.794,2.047,3.174,1.909,1.7,3.244,3.611,3.244,5.864v.3a4.371,4.371,0,0,1-4.623,4.531C419.483,161.165,417.942,159.624,417.942,156.818Zm-10.143-.276v-8.717c0-3.427,2.231-4.715,4.715-4.715s4.646,1.242,4.646,4.715v8.717c0,3.29-2.185,4.623-4.646,4.623C410.007,161.165,407.8,159.831,407.8,156.542Zm3.68-9.544v10.35a.994.994,0,0,0,1.035,1.127c.621,0,.966-.368.966-1.1V147a1,1,0,0,0-.989-1.127C411.87,145.87,411.479,146.261,411.479,147Zm-28.5,9.706V143.409h3.658V157.14a1.118,1.118,0,1,0,2.231-.023V143.409h3.2V156.68a4.2,4.2,0,0,1-4.485,4.485C384.822,161.165,382.982,159.486,382.982,156.7Zm-18.975.115a11.221,11.221,0,0,1,.161-2.116l2.737.184a9.4,9.4,0,0,0-.115,1.679c0,1.449.553,1.863,1.335,1.863a1.292,1.292,0,0,0,1.219-1.449v-.253c0-1.265-.6-2.139-2.438-3.91-1.84-1.748-2.852-3.219-2.852-5.175v-.16a4.359,4.359,0,0,1,4.577-4.37,4.054,4.054,0,0,1,4.393,4.347,15.279,15.279,0,0,1-.138,2.093l-2.691-.185a10.459,10.459,0,0,0,.138-1.656c0-1.495-.6-1.84-1.4-1.84a1.148,1.148,0,0,0-1.242,1.31v.115c0,.966.506,1.794,2.047,3.174,1.91,1.7,3.244,3.611,3.244,5.864v.3a4.371,4.371,0,0,1-4.623,4.531C365.548,161.165,364.007,159.624,364.007,156.818Zm39.238,4.071v-17.48H406.9v17.48Zm-10.235,0v-17.48h4.715c3.036,0,4.622,1.541,4.622,4.623v8.625c0,2.9-1.678,4.232-4.531,4.232Zm3.657-2.851h.667c.9,0,1.357-.368,1.357-1.289V147.94c0-1.242-.322-1.679-1.357-1.679h-.667ZM376.1,160.889V146.261h-2.966v-2.852h9.636v2.852h-2.99v14.628ZM323.29,82.757V28.56C323.29,7.252,337.161-.755,352.6-.755S381.49,6.967,381.49,28.56v54.2c0,20.449-13.585,28.742-28.885,28.742C337.018,111.5,323.29,103.206,323.29,82.757Zm22.88-59.345v64.35c0,4.576,2.574,7.007,6.435,7.007s6.006-2.288,6.006-6.863V23.412c0-4.433-2.574-7.007-6.149-7.007C348.6,16.4,346.17,18.835,346.17,23.412Zm-83.8,86.372V1.1h31.174c16.3,0,26.026,9.438,26.026,27.885,0,12.87-4.29,21.594-14.157,25.025V54.3c10.3,3.432,15.729,12.3,15.729,25.74,0,18.59-9.009,29.744-27.742,29.744Zm22.737-17.733h5.434c5.72,0,8.438-4.862,8.438-14.872,0-9.867-3.146-14.443-8.437-14.443h-5.434Zm0-46.189h5.148c5.148,0,8.008-3.861,8.008-13.442,0-10.582-3.432-13.585-8.008-13.585h-5.148ZM233.2,109.784v-59.2h-.715l-11.869,59.2h-14.3L194.161,51.01H193.3v58.774H173.426V1.1h28.886L214.18,63.737h.715L227.766,1.1h28.171v108.68Zm-88.946,0V1.1h22.737v108.68Zm-49.335,0V1.1h22.737V92.051h24.739v17.733Zm-26.312,0L50.16,51.153h-1v58.631H29.138V1.1H51.16L67.605,51.726h1V1.1H88.484v108.68Zm-68.64,0V1.1H22.7v108.68Z" transform="translate(695.236 487.488)" fill="#a2a2a2" stroke="rgba(0,0,0,0)" stroke-miterlimit="10" stroke-width="1"/>
  </g>
</svg>
