<svg xmlns="http://www.w3.org/2000/svg" width="39.263" height="29.448" viewBox="0 0 39.263 29.448">
  <path id="envelope-regular" d="M4.908,67.681a1.231,1.231,0,0,0-1.227,1.227V70.6L16.909,81.461a4.29,4.29,0,0,0,5.452,0L35.582,70.6V68.908a1.231,1.231,0,0,0-1.227-1.227ZM3.681,75.365V88.54a1.231,1.231,0,0,0,1.227,1.227H34.355a1.231,1.231,0,0,0,1.227-1.227V75.365L24.693,84.307a7.976,7.976,0,0,1-10.123,0ZM0,68.908A4.912,4.912,0,0,1,4.908,64H34.355a4.912,4.912,0,0,1,4.908,4.908V88.54a4.912,4.912,0,0,1-4.908,4.908H4.908A4.912,4.912,0,0,1,0,88.54Z" transform="translate(0 -64)" fill="#fff" opacity="0.66"/>
</svg>
