<svg xmlns="http://www.w3.org/2000/svg" width="28" height="28" viewBox="0 0 28 28">
  <g id="gallery-button" transform="translate(-1003 -761)">
    <g id="Ellipse_3" data-name="Ellipse 3" transform="translate(1003 761)" fill="none" stroke="#fff" stroke-width="1">
      <circle cx="14" cy="14" r="14" stroke="none"/>
      <circle cx="14" cy="14" r="13.5" fill="none"/>
    </g>
    <g id="Union_2" data-name="Union 2" transform="translate(4986 2181)" fill="none">
      <path d="M-3971.183-1401h-4.976a2,2,0,0,1-1.638-3.146l3.158-4.512a2,2,0,0,1,3.277,0l.836,1.2,2.881-4.161a2,2,0,0,1,3.288,0l5.183,7.486a2,2,0,0,1-1.645,3.138Z" stroke="none"/>
      <path d="M -3960.81689453125 -1402.000366210938 C -3960.438232421875 -1402.000366210938 -3960.107421875 -1402.200561523438 -3959.931640625 -1402.536010742188 C -3959.755615234375 -1402.87158203125 -3959.779296875 -1403.258178710938 -3959.99462890625 -1403.569458007812 L -3965.17822265625 -1411.055908203125 C -3965.367431640625 -1411.329711914062 -3965.6669921875 -1411.486694335938 -3965.999755859375 -1411.486694335938 C -3966.33251953125 -1411.486694335938 -3966.632080078125 -1411.329711914062 -3966.821533203125 -1411.055419921875 L -3970.5205078125 -1405.713500976562 L -3972.1806640625 -1408.085693359375 C -3972.370361328125 -1408.356689453125 -3972.6689453125 -1408.512084960938 -3973 -1408.512084960938 C -3973.3310546875 -1408.512084960938 -3973.629638671875 -1408.356689453125 -3973.8193359375 -1408.085693359375 L -3976.97802734375 -1403.57275390625 C -3977.19580078125 -1403.262084960938 -3977.22119140625 -1402.875610351562 -3977.046142578125 -1402.538940429688 C -3976.87060546875 -1402.20166015625 -3976.538818359375 -1402.000366210938 -3976.158447265625 -1402.000366210938 L -3960.81689453125 -1402.000366210938 M -3960.81689453125 -1401.000366210938 L -3976.158447265625 -1401.000366210938 C -3977.77685546875 -1401.000366210938 -3978.7255859375 -1402.821655273438 -3977.796875 -1404.146728515625 L -3974.638671875 -1408.659057617188 C -3973.8427734375 -1409.796264648438 -3972.1572265625 -1409.796264648438 -3971.361328125 -1408.659057617188 L -3970.52490234375 -1407.4638671875 L -3967.643798828125 -1411.624755859375 C -3966.84912109375 -1412.77392578125 -3965.15087890625 -1412.7744140625 -3964.355712890625 -1411.624755859375 L -3959.17236328125 -1404.138671875 C -3958.254638671875 -1402.811645507812 -3959.204345703125 -1401.000366210938 -3960.81689453125 -1401.000366210938 Z" stroke="none" fill="#fff"/>
    </g>
    <circle id="Ellipse_4" data-name="Ellipse 4" cx="2" cy="2" r="2" transform="translate(1013 765)" fill="#fff"/>
  </g>
</svg>
