<svg xmlns="http://www.w3.org/2000/svg" width="52" height="52" viewBox="0 0 52 52">
  <g id="Exclusion_2" data-name="Exclusion 2" transform="translate(-3)" fill="none">
    <path d="M29,52A26.007,26.007,0,0,1,18.879,2.043,26.007,26.007,0,0,1,39.12,49.957,25.837,25.837,0,0,1,29,52ZM22,13a3,3,0,0,0-3,3V36a3,3,0,0,0,3,3H40a3,3,0,0,0,3-3V16a3,3,0,0,0-3-3Zm-7.5,4A1.5,1.5,0,0,0,13,18.5v17a1.5,1.5,0,1,0,3,0v-17A1.5,1.5,0,0,0,14.5,17ZM39.1,33H22.9a1,1,0,0,1-.823-1.566l3.6-5.235a1,1,0,0,1,1.648,0l1.663,2.42,3.686-5.407a1,1,0,0,1,1.652,0l5.608,8.225A1,1,0,0,1,39.1,33ZM28,24a2,2,0,1,1,2-2A2,2,0,0,1,28,24Z" stroke="none"/>
    <path d="M 28.99979972839355 51.00020217895508 C 32.37524795532227 51.00020217895508 35.64918899536133 50.33934020996094 38.73067855834961 49.03599166870117 C 41.70755004882812 47.77687072753906 44.38127136230469 45.97414016723633 46.67755889892578 43.67787170410156 C 48.97383880615234 41.38157272338867 50.77656936645508 38.70785140991211 52.03569030761719 35.73097991943359 C 53.33903884887695 32.64949035644531 53.99990081787109 29.37555122375488 53.99990081787109 26.00010108947754 C 53.99990081787109 22.6246509552002 53.33903884887695 19.35071182250977 52.03569030761719 16.26922035217285 C 50.77656936645508 13.29235076904297 48.97383880615234 10.61863136291504 46.67757034301758 8.322340965270996 C 44.38127136230469 6.026061058044434 41.70755004882812 4.223330974578857 38.73067855834961 2.964210987091064 C 35.64918899536133 1.660861134529114 32.37524795532227 1.000001072883606 28.99979972839355 1.000001072883606 C 25.62434959411621 1.000001072883606 22.35041046142578 1.660861134529114 19.26891899108887 2.964210987091064 C 16.29204940795898 4.223330974578857 13.61833000183105 6.026061058044434 11.32203960418701 8.322331428527832 C 9.025759696960449 10.61863136291504 7.223029613494873 13.29235076904297 5.96390962600708 16.26922035217285 C 4.66055965423584 19.35071182250977 3.999699831008911 22.6246509552002 3.999699831008911 26.00010108947754 C 3.999699831008911 29.37555122375488 4.66055965423584 32.64949035644531 5.96390962600708 35.73097991943359 C 7.223029613494873 38.70785140991211 9.025759696960449 41.38157272338867 11.32203006744385 43.67786026000977 C 13.61833000183105 45.97414016723633 16.29204940795898 47.77687072753906 19.26891899108887 49.03599166870117 C 22.35041046142578 50.33934020996094 25.62434959411621 51.00020217895508 28.99979972839355 51.00020217895508 M 22.0004997253418 11.99960136413574 L 40.0004997253418 11.99960136413574 C 42.20594024658203 11.99960136413574 44.00019836425781 13.79386138916016 44.00019836425781 15.99930095672607 L 44.00019836425781 36 C 44.00019836425781 38.20544052124023 42.20594024658203 39.99970245361328 40.0004997253418 39.99970245361328 L 22.0004997253418 39.99970245361328 C 19.79505920410156 39.99970245361328 18.00079917907715 38.20544052124023 18.00079917907715 36 L 18.00079917907715 15.99930095672607 C 18.00079917907715 13.79386138916016 19.79505920410156 11.99960136413574 22.0004997253418 11.99960136413574 M 14.49989986419678 16.00010108947754 C 15.87856960296631 16.00010108947754 17.00020027160645 17.12173080444336 17.00020027160645 18.50040054321289 L 17.00020027160645 35.49959945678711 C 17.00020027160645 36.87826919555664 15.87856960296631 37.99990081787109 14.49989986419678 37.99990081787109 C 13.12123012542725 37.99990081787109 11.99959945678711 36.87826919555664 11.99959945678711 35.49959945678711 L 11.99959945678711 18.50040054321289 C 11.99959945678711 17.12173080444336 13.12123012542725 16.00010108947754 14.49989986419678 16.00010108947754 M 39.10409927368164 31.9994010925293 L 39.10406875610352 31.99943161010742 L 33.49625015258789 23.77430152893066 L 28.98690986633301 30.38859176635742 L 26.49715995788574 26.76579093933105 C 26.4969310760498 26.76546096801758 26.49667549133301 26.76520156860352 26.49614334106445 26.76520156860352 L 22.89780426025391 31.9994010925293 L 39.10409927368164 31.9994010925293 M 27.99989891052246 22.9994010925293 C 28.55168914794922 22.9994010925293 29.0005989074707 22.5508918762207 29.0005989074707 21.99960136413574 C 29.0005989074707 21.44831085205078 28.55168914794922 20.99980163574219 27.99989891052246 20.99980163574219 C 27.44861030578613 20.99980163574219 27.00009918212891 21.44831085205078 27.00009918212891 21.99960136413574 C 27.00009918212891 22.5508918762207 27.44861030578613 22.9994010925293 27.99989891052246 22.9994010925293 M 28.99979972839355 52.00020217895508 C 25.48979949951172 52.00020217895508 22.08479881286621 51.31277084350586 18.87936973571777 49.95698928833008 C 15.78329944610596 48.6474609375 13.00273990631104 46.77276229858398 10.61493015289307 44.38497161865234 C 8.227139472961426 41.99716186523438 6.352439880371094 39.21660232543945 5.042909622192383 36.12053298950195 C 3.687129735946655 32.91510009765625 2.999699831008911 29.51010131835938 2.999699831008911 26.00010108947754 C 2.999699831008911 22.4901008605957 3.687129735946655 19.0851001739502 5.042909622192383 15.87967109680176 C 6.352439880371094 12.78360080718994 8.227139472961426 10.00304126739502 10.61493015289307 7.615231037139893 C 13.00273990631104 5.227441310882568 15.78329944610596 3.352741003036499 18.87936973571777 2.043210983276367 C 22.08479881286621 0.6874310970306396 25.48979949951172 1.089477564164554e-06 28.99979972839355 1.089477564164554e-06 C 32.50979995727539 1.089477564164554e-06 35.91479873657227 0.6874310970306396 39.12023162841797 2.043210983276367 C 42.21630096435547 3.352741003036499 44.99686050415039 5.227441310882568 47.38467025756836 7.615231037139893 C 49.7724609375 10.00304126739502 51.64715957641602 12.78360080718994 52.95668792724609 15.87967109680176 C 54.31246948242188 19.0851001739502 54.99990081787109 22.4901008605957 54.99990081787109 26.00010108947754 C 54.99990081787109 29.51010131835938 54.31246948242188 32.91510009765625 52.95668792724609 36.12053298950195 C 51.64715957641602 39.21660232543945 49.7724609375 41.99716186523438 47.38467025756836 44.38497161865234 C 44.99686050415039 46.77276229858398 42.21630096435547 48.6474609375 39.12023162841797 49.95698928833008 C 35.91479873657227 51.31277084350586 32.50979995727539 52.00020217895508 28.99979972839355 52.00020217895508 Z M 22.0004997253418 12.99960136413574 C 20.34646034240723 12.99960136413574 19.00079917907715 14.34526062011719 19.00079917907715 15.99930095672607 L 19.00079917907715 36 C 19.00079917907715 37.6540412902832 20.34646034240723 38.99970245361328 22.0004997253418 38.99970245361328 L 40.0004997253418 38.99970245361328 C 41.654541015625 38.99970245361328 43.00019836425781 37.6540412902832 43.00019836425781 36 L 43.00019836425781 15.99930095672607 C 43.00019836425781 14.34526062011719 41.654541015625 12.99960136413574 40.0004997253418 12.99960136413574 L 22.0004997253418 12.99960136413574 Z M 14.49989986419678 17.00010108947754 C 13.67262935638428 17.00010108947754 12.99959945678711 17.67313194274902 12.99959945678711 18.50040054321289 L 12.99959945678711 35.49959945678711 C 12.99959945678711 36.32686996459961 13.67262935638428 36.99990081787109 14.49989986419678 36.99990081787109 C 15.32716941833496 36.99990081787109 16.00020027160645 36.32686996459961 16.00020027160645 35.49959945678711 L 16.00020027160645 18.50040054321289 C 16.00020027160645 17.67313194274902 15.32716941833496 17.00010108947754 14.49989986419678 17.00010108947754 Z M 39.10409927368164 32.9994010925293 L 22.89690017700195 32.9994010925293 C 22.51856994628906 32.9994010925293 22.1878490447998 32.79988098144531 22.01219940185547 32.46570205688477 C 21.83596992492676 32.13122940063477 21.85885047912598 31.74532127380371 22.07340049743652 31.43340110778809 L 25.67250061035156 26.19810104370117 C 25.86130905151367 25.9229907989502 26.16145896911621 25.76520156860352 26.49600028991699 25.76520156860352 C 26.83020973205566 25.76520156860352 27.13068962097168 25.9229907989502 27.32040023803711 26.19810104370117 L 28.98360061645508 28.61820030212402 L 32.66999816894531 23.21100044250488 C 32.85633850097656 22.93824195861816 33.16519927978516 22.77540016174316 33.49620056152344 22.77540016174316 C 33.82630157470703 22.77540016174316 34.13515853881836 22.93824195861816 34.3223991394043 23.21100044250488 L 39.9302978515625 31.43610191345215 C 40.14263153076172 31.748291015625 40.16415786743164 32.13386154174805 39.98789978027344 32.46750259399414 C 39.81147003173828 32.80055999755859 39.48107147216797 32.9994010925293 39.10409927368164 32.9994010925293 Z M 27.99989891052246 23.9994010925293 C 26.89720916748047 23.9994010925293 26.00009918212891 23.10229110717773 26.00009918212891 21.99960136413574 C 26.00009918212891 20.89691162109375 26.89720916748047 19.99980163574219 27.99989891052246 19.99980163574219 C 29.10309028625488 19.99980163574219 30.0005989074707 20.89691162109375 30.0005989074707 21.99960136413574 C 30.0005989074707 23.10229110717773 29.10309028625488 23.9994010925293 27.99989891052246 23.9994010925293 Z" stroke="none" fill="#fff"/>
  </g>
</svg>
