<svg xmlns="http://www.w3.org/2000/svg" width="560.001" height="214.424" viewBox="0 0 560.001 214.424">
  <g id="inlimbo-black-on-white" transform="translate(-606.997 -434.796)">
    <g id="Subtraction_3" data-name="Subtraction 3" transform="translate(607 434.793)" fill="#fff" stroke-linecap="round" stroke-linejoin="round">
      <path d="M 428.2817993164062 208.0014343261719 L 8.997293472290039 208.0005187988281 C 5.688864231109619 208.0005187988281 2.997292995452881 205.3089447021484 2.997292995452881 202.0005187988281 L 2.997292995452881 9.00273323059082 C 2.997292995452881 5.694304943084717 5.688864231109619 3.002661943435669 8.997293472290039 3.002661943435669 L 550.9979858398438 3.002661943435669 C 554.3064575195312 3.002661943435669 556.9979858398438 5.694304943084717 556.9979858398438 9.00273323059082 L 556.9979858398438 202.0005187988281 C 556.9979858398438 205.3089447021484 554.3064575195312 208.0005187988281 550.9979858398438 208.0005187988281 L 541.2675170898438 208.0005187988281 L 541.2675170898438 203.9529266357422 L 546.9678344726562 203.952880859375 C 550.2765502929688 203.952880859375 552.9683837890625 201.2614440917969 552.9683837890625 197.9532318115234 L 552.9683837890625 13.05001926422119 C 552.9683837890625 9.741805076599121 550.2765502929688 7.050375938415527 546.9678344726562 7.050375938415527 L 13.02750682830811 7.050375938415527 C 9.719221115112305 7.050375938415527 7.027792930603027 9.741805076599121 7.027792930603027 13.05001926422119 L 7.027792930603027 197.9532318115234 C 7.027792930603027 201.2614440917969 9.719221115112305 203.952880859375 13.02750682830811 203.952880859375 L 428.2817993164062 203.952880859375 L 428.2817993164062 208.0014343261719 Z" stroke="none"/>
      <path d="M 431.2817993164062 211.0015563964844 L 431.2809448242188 211.0014801025391 L 8.997265815734863 211.0005493164062 C 4.034650325775146 211.0005493164062 -0.002734468784183264 206.9631652832031 -0.002734468784183264 202.0005493164062 L -0.002734468784183264 9.002705574035645 C -0.002734468784183264 4.040090560913086 4.034650325775146 0.002705838764086366 8.997265815734863 0.002705838764086366 L 550.9979858398438 0.002705838764086366 C 555.9606323242188 0.002705838764086366 559.9979858398438 4.040090560913086 559.9979858398438 9.002705574035645 L 559.9979858398438 202.0005493164062 C 559.9979858398438 206.9631652832031 555.9606323242188 211.0005493164062 550.9979858398438 211.0005493164062 L 538.2675170898438 211.0005493164062 L 538.2675170898438 200.9529418945312 L 546.9678955078125 200.9528656005859 C 548.6224365234375 200.9528656005859 549.9684448242188 199.6072387695312 549.9684448242188 197.9532470703125 L 549.9684448242188 13.05001354217529 C 549.9684448242188 11.3960132598877 548.6224365234375 10.0503978729248 546.9678955078125 10.0503978729248 L 13.02749633789062 10.0503978729248 C 11.37341976165771 10.0503978729248 10.02780437469482 11.3960132598877 10.02780437469482 13.05001354217529 L 10.02780437469482 197.9532470703125 C 10.02780437469482 199.6072387695312 11.37341976165771 200.9528656005859 13.02749633789062 200.9528656005859 L 431.2817993164062 200.9528656005859 L 431.2817993164062 211.0015563964844 Z" stroke="none" fill="#000"/>
    </g>
    <path id="Union_1" data-name="Union 1" d="M418.066,156.866a11.143,11.143,0,0,1,.161-2.116l2.737.184a9.377,9.377,0,0,0-.115,1.679c0,1.449.552,1.863,1.334,1.863a1.291,1.291,0,0,0,1.22-1.449v-.253c0-1.264-.6-2.138-2.438-3.91-1.84-1.748-2.852-3.22-2.852-5.175v-.161a4.358,4.358,0,0,1,4.576-4.37,4.055,4.055,0,0,1,4.394,4.347,15.266,15.266,0,0,1-.139,2.093l-2.691-.185a10.337,10.337,0,0,0,.139-1.656c0-1.495-.6-1.84-1.4-1.84a1.148,1.148,0,0,0-1.242,1.311v.114c0,.967.506,1.795,2.047,3.174,1.909,1.7,3.243,3.611,3.243,5.865v.3a4.37,4.37,0,0,1-4.622,4.531C419.607,161.213,418.066,159.673,418.066,156.866Zm-10.143-.275v-8.717c0-3.427,2.231-4.715,4.715-4.715s4.646,1.242,4.646,4.715v8.717c0,3.289-2.185,4.622-4.646,4.622C410.131,161.213,407.923,159.88,407.923,156.591Zm3.68-9.545V157.4a.994.994,0,0,0,1.035,1.127c.621,0,.966-.367.966-1.1V147.046a1,1,0,0,0-.989-1.127C411.994,145.919,411.6,146.309,411.6,147.046Zm-28.5,9.706V143.458h3.658v13.73a1.118,1.118,0,1,0,2.231-.022V143.458h3.2v13.27a4.2,4.2,0,0,1-4.486,4.485C384.946,161.213,383.106,159.535,383.106,156.752Zm-18.975.114a11.221,11.221,0,0,1,.161-2.116l2.737.184a9.377,9.377,0,0,0-.115,1.679c0,1.449.553,1.863,1.334,1.863a1.291,1.291,0,0,0,1.219-1.449v-.253c0-1.264-.6-2.138-2.438-3.91-1.84-1.748-2.852-3.22-2.852-5.175v-.161a4.359,4.359,0,0,1,4.577-4.37,4.055,4.055,0,0,1,4.393,4.347,15.122,15.122,0,0,1-.139,2.093l-2.691-.185a10.337,10.337,0,0,0,.139-1.656c0-1.495-.6-1.84-1.4-1.84a1.148,1.148,0,0,0-1.242,1.311v.114c0,.967.506,1.795,2.047,3.174,1.909,1.7,3.244,3.611,3.244,5.865v.3a4.37,4.37,0,0,1-4.623,4.531C365.672,161.213,364.131,159.673,364.131,156.866Zm39.238,4.072v-17.48h3.657v17.48Zm-10.235,0v-17.48h4.714c3.037,0,4.623,1.541,4.623,4.622v8.626c0,2.9-1.679,4.232-4.531,4.232Zm3.657-2.852h.667c.9,0,1.357-.368,1.357-1.288v-8.809c0-1.242-.322-1.679-1.357-1.679h-.667Zm-20.562,2.852V146.309h-2.966v-2.851H382.9v2.851h-2.99v14.629ZM323.287,82.755v-54.2c0-21.307,13.871-29.315,29.315-29.315s28.886,7.722,28.886,29.315v54.2c0,20.449-13.585,28.743-28.886,28.743C337.016,111.5,323.287,103.2,323.287,82.755Zm22.88-59.345V87.76c0,4.576,2.574,7.007,6.435,7.007s6.007-2.289,6.007-6.864V23.41c0-4.433-2.574-7.007-6.149-7.007C348.6,16.4,346.167,18.834,346.167,23.41Zm-83.8,86.372V1.1h31.173c16.3,0,26.026,9.438,26.026,27.886,0,12.87-4.29,21.593-14.157,25.024V54.3c10.3,3.432,15.73,12.3,15.73,25.74,0,18.59-9.009,29.744-27.743,29.744ZM285.107,92.05h5.434c5.719,0,8.437-4.862,8.437-14.872,0-9.867-3.145-14.442-8.437-14.442h-5.434Zm0-46.189h5.148c5.148,0,8.008-3.861,8.008-13.442,0-10.582-3.433-13.585-8.008-13.585h-5.148ZM233.2,109.782V50.58h-.715l-11.869,59.2h-14.3L194.159,51.009H193.3v58.773H173.424V1.1h28.885l11.869,62.635h.715L227.764,1.1h28.171v108.68Zm-88.946,0V1.1h22.738v108.68Zm-49.334,0V1.1h22.737V92.05h24.739v17.732Zm-26.312,0L50.158,51.152h-1v58.63H29.137V1.1H51.159L67.6,51.724h1V1.1H88.482v108.68Zm-68.639,0V1.1H22.7v108.68Z" transform="translate(695.266 487.506)" stroke="rgba(0,0,0,0)" stroke-miterlimit="10" stroke-width="1"/>
  </g>
</svg>
