<svg xmlns="http://www.w3.org/2000/svg" width="29.454" height="29.448" viewBox="0 0 29.454 29.448">
  <path id="instagram" d="M14.655,39a7.55,7.55,0,1,0,7.55,7.55A7.538,7.538,0,0,0,14.655,39Zm0,12.458a4.908,4.908,0,1,1,4.908-4.908,4.917,4.917,0,0,1-4.908,4.908Zm9.62-12.767a1.761,1.761,0,1,1-1.761-1.761A1.757,1.757,0,0,1,24.275,38.69Zm5,1.787a8.715,8.715,0,0,0-2.379-6.17,8.772,8.772,0,0,0-6.17-2.379c-2.431-.138-9.718-.138-12.15,0A8.759,8.759,0,0,0,2.407,34.3a8.743,8.743,0,0,0-2.379,6.17c-.138,2.431-.138,9.718,0,12.15a8.715,8.715,0,0,0,2.379,6.17,8.783,8.783,0,0,0,6.17,2.379c2.431.138,9.718.138,12.15,0A8.715,8.715,0,0,0,26.9,58.79a8.772,8.772,0,0,0,2.379-6.17c.138-2.431.138-9.712,0-12.143ZM26.135,55.229a4.969,4.969,0,0,1-2.8,2.8c-1.938.769-6.538.591-8.68.591s-6.748.171-8.68-.591a4.969,4.969,0,0,1-2.8-2.8c-.769-1.938-.591-6.538-.591-8.68s-.171-6.748.591-8.68a4.969,4.969,0,0,1,2.8-2.8c1.938-.769,6.538-.591,8.68-.591s6.748-.171,8.68.591a4.969,4.969,0,0,1,2.8,2.8c.769,1.938.591,6.538.591,8.68S26.9,53.3,26.135,55.229Z" transform="translate(0.075 -31.825)" fill="#fff" opacity="0.66"/>
</svg>
