<svg xmlns="http://www.w3.org/2000/svg" width="52" height="52" viewBox="0 0 52 52">
  <g id="pause-button" fill="none">
    <path d="M26,52A26.007,26.007,0,0,1,15.88,2.043,26.007,26.007,0,0,1,36.121,49.957,25.837,25.837,0,0,1,26,52Zm2-39V39h6V13ZM17,13V39h6V13Z" stroke="none"/>
    <path d="M 26.00010108947754 51.00020217895508 C 29.37555122375488 51.00020217895508 32.64949035644531 50.33934020996094 35.73097991943359 49.03599166870117 C 38.70785140991211 47.77687072753906 41.38157272338867 45.97414016723633 43.67786026000977 43.67787170410156 C 45.97414016723633 41.38157272338867 47.77687072753906 38.70785140991211 49.03599166870117 35.73097991943359 C 50.33934020996094 32.64949035644531 51.00020217895508 29.37555122375488 51.00020217895508 26.00010108947754 C 51.00020217895508 22.6246509552002 50.33934020996094 19.35071182250977 49.03599166870117 16.26922035217285 C 47.77687072753906 13.29235076904297 45.97414016723633 10.61863136291504 43.67787170410156 8.322340965270996 C 41.38157272338867 6.026061058044434 38.70785140991211 4.223330974578857 35.73097991943359 2.964210987091064 C 32.64949035644531 1.660861134529114 29.37555122375488 1.000001072883606 26.00010108947754 1.000001072883606 C 22.6246509552002 1.000001072883606 19.35071182250977 1.660861134529114 16.26922035217285 2.964210987091064 C 13.29235076904297 4.223330974578857 10.61863136291504 6.026061058044434 8.322340965270996 8.322331428527832 C 6.026061058044434 10.61863136291504 4.223330974578857 13.29235076904297 2.964210987091064 16.26922035217285 C 1.660861134529114 19.35071182250977 1.000001072883606 22.6246509552002 1.000001072883606 26.00010108947754 C 1.000001072883606 29.37555122375488 1.660861134529114 32.64949035644531 2.964210987091064 35.73097991943359 C 4.223330974578857 38.70785140991211 6.026061058044434 41.38157272338867 8.322331428527832 43.67786026000977 C 10.61863136291504 45.97414016723633 13.29235076904297 47.77687072753906 16.26922035217285 49.03599166870117 C 19.35071182250977 50.33934020996094 22.6246509552002 51.00020217895508 26.00010108947754 51.00020217895508 M 26.99990081787109 11.99960136413574 L 35.00020217895508 11.99960136413574 L 35.00020217895508 39.99970245361328 L 26.99990081787109 39.99970245361328 L 26.99990081787109 11.99960136413574 M 16.00010108947754 11.99960136413574 L 24.00040054321289 11.99960136413574 L 24.00040054321289 39.99970245361328 L 16.00010108947754 39.99970245361328 L 16.00010108947754 11.99960136413574 M 26.00010108947754 52.00020217895508 C 22.4901008605957 52.00020217895508 19.0851001739502 51.31277084350586 15.87967109680176 49.95698928833008 C 12.78360080718994 48.6474609375 10.00304126739502 46.77276229858398 7.615231037139893 44.38497161865234 C 5.227441310882568 41.99716186523438 3.352741003036499 39.21660232543945 2.043210983276367 36.12053298950195 C 0.6874310970306396 32.91510009765625 1.089477564164554e-06 29.51010131835938 1.089477564164554e-06 26.00010108947754 C 1.089477564164554e-06 22.4901008605957 0.6874310970306396 19.0851001739502 2.043210983276367 15.87967109680176 C 3.352741003036499 12.78360080718994 5.227441310882568 10.00304126739502 7.615231037139893 7.615231037139893 C 10.00304126739502 5.227441310882568 12.78360080718994 3.352741003036499 15.87967109680176 2.043210983276367 C 19.0851001739502 0.6874310970306396 22.4901008605957 1.089477564164554e-06 26.00010108947754 1.089477564164554e-06 C 29.51010131835938 1.089477564164554e-06 32.91510009765625 0.6874310970306396 36.12053298950195 2.043210983276367 C 39.21660232543945 3.352741003036499 41.99716186523438 5.227441310882568 44.38497161865234 7.615231037139893 C 46.77276229858398 10.00304126739502 48.6474609375 12.78360080718994 49.95698928833008 15.87967109680176 C 51.31277084350586 19.0851001739502 52.00020217895508 22.4901008605957 52.00020217895508 26.00010108947754 C 52.00020217895508 29.51010131835938 51.31277084350586 32.91510009765625 49.95698928833008 36.12053298950195 C 48.6474609375 39.21660232543945 46.77276229858398 41.99716186523438 44.38497161865234 44.38497161865234 C 41.99716186523438 46.77276229858398 39.21660232543945 48.6474609375 36.12053298950195 49.95698928833008 C 32.91510009765625 51.31277084350586 29.51010131835938 52.00020217895508 26.00010108947754 52.00020217895508 Z M 27.99990081787109 12.99960136413574 L 27.99990081787109 38.99970245361328 L 34.00020217895508 38.99970245361328 L 34.00020217895508 12.99960136413574 L 27.99990081787109 12.99960136413574 Z M 17.00010108947754 12.99960136413574 L 17.00010108947754 38.99970245361328 L 23.00040054321289 38.99970245361328 L 23.00040054321289 12.99960136413574 L 17.00010108947754 12.99960136413574 Z" stroke="none" fill="#fff"/>
  </g>
</svg>
