<svg xmlns="http://www.w3.org/2000/svg" width="28" height="28" viewBox="0 0 28 28">
  <g id="play-pause-button" transform="translate(3980 1414)" fill="none">
    <path d="M-3966-1386a13.908,13.908,0,0,1-9.9-4.1,13.908,13.908,0,0,1-4.1-9.9,13.907,13.907,0,0,1,4.1-9.9,13.907,13.907,0,0,1,9.9-4.1,13.908,13.908,0,0,1,9.9,4.1,13.909,13.909,0,0,1,4.1,9.9,13.91,13.91,0,0,1-4.1,9.9A13.908,13.908,0,0,1-3966-1386Zm-3.678-21.44v15.046l11.284-7.522-11.284-7.523Z" stroke="none"/>
    <path d="M -3966.00048828125 -1386.999877929688 C -3962.52783203125 -1386.999877929688 -3959.263427734375 -1388.35205078125 -3956.80810546875 -1390.807250976562 C -3954.352783203125 -1393.262939453125 -3953.00048828125 -1396.527587890625 -3953.00048828125 -1399.999877929688 C -3953.00048828125 -1403.472045898438 -3954.352783203125 -1406.736694335938 -3956.80810546875 -1409.1923828125 C -3959.263427734375 -1411.647705078125 -3962.52783203125 -1412.999877929688 -3966.00048828125 -1412.999877929688 C -3969.47314453125 -1412.999877929688 -3972.737548828125 -1411.647705078125 -3975.19287109375 -1409.192260742188 C -3977.648193359375 -1406.737060546875 -3979.00048828125 -1403.472534179688 -3979.00048828125 -1399.999877929688 C -3979.00048828125 -1396.527221679688 -3977.648193359375 -1393.262573242188 -3975.19287109375 -1390.807250976562 C -3972.737548828125 -1388.35205078125 -3969.47314453125 -1386.999877929688 -3966.00048828125 -1386.999877929688 M -3970.67822265625 -1409.308837890625 L -3956.59130859375 -1399.917114257812 L -3970.67822265625 -1390.5263671875 L -3970.67822265625 -1409.308837890625 M -3966.00048828125 -1385.999877929688 C -3969.740234375 -1385.999877929688 -3973.255859375 -1387.4560546875 -3975.89990234375 -1390.100219726562 C -3978.54443359375 -1392.744506835938 -3980.00048828125 -1396.26025390625 -3980.00048828125 -1399.999877929688 C -3980.00048828125 -1403.739501953125 -3978.54443359375 -1407.255126953125 -3975.89990234375 -1409.8994140625 C -3973.255859375 -1412.543701171875 -3969.740234375 -1413.999877929688 -3966.00048828125 -1413.999877929688 C -3962.26123046875 -1413.999877929688 -3958.7451171875 -1412.543701171875 -3956.10107421875 -1409.8994140625 C -3953.45703125 -1407.255126953125 -3952.00048828125 -1403.739501953125 -3952.00048828125 -1399.999877929688 C -3952.00048828125 -1396.26025390625 -3953.45703125 -1392.744506835938 -3956.10107421875 -1390.100219726562 C -3958.7451171875 -1387.4560546875 -3962.26123046875 -1385.999877929688 -3966.00048828125 -1385.999877929688 Z M -3969.67822265625 -1407.440307617188 L -3969.67822265625 -1392.394775390625 L -3958.39404296875 -1399.917114257812 L -3969.67822265625 -1407.440307617188 Z" stroke="none" fill="#fff"/>
  </g>
</svg>
