<svg xmlns="http://www.w3.org/2000/svg" width="52" height="52" viewBox="0 0 52 52">
  <g id="play-button" fill="none">
    <path d="M26,52A26.007,26.007,0,0,1,15.88,2.043,26.007,26.007,0,0,1,36.121,49.957,25.837,25.837,0,0,1,26,52ZM19.509,9.735a4.076,4.076,0,0,0-2.786,1.124A3.947,3.947,0,0,0,15.5,13.742V38.258a3.946,3.946,0,0,0,1.223,2.883,4.075,4.075,0,0,0,2.786,1.124,3.983,3.983,0,0,0,2.121-.621L41.117,29.386a4,4,0,0,0,0-6.772L21.63,10.355A3.983,3.983,0,0,0,19.509,9.735Z" stroke="none"/>
    <path d="M 26.00010108947754 51.00020217895508 C 29.37555122375488 51.00020217895508 32.64949035644531 50.33934020996094 35.73097991943359 49.03599166870117 C 38.70785140991211 47.77687072753906 41.38157272338867 45.97414016723633 43.67786026000977 43.67787170410156 C 45.97414016723633 41.38157272338867 47.77687072753906 38.70785140991211 49.03599166870117 35.73097991943359 C 50.33934020996094 32.64949035644531 51.00020217895508 29.37555122375488 51.00020217895508 26.00010108947754 C 51.00020217895508 22.6246509552002 50.33934020996094 19.35071182250977 49.03599166870117 16.26922035217285 C 47.77687072753906 13.29235076904297 45.97414016723633 10.61863136291504 43.67787170410156 8.322340965270996 C 41.38157272338867 6.026061058044434 38.70785140991211 4.223330974578857 35.73097991943359 2.964210987091064 C 32.64949035644531 1.660861134529114 29.37555122375488 1.000001072883606 26.00010108947754 1.000001072883606 C 22.6246509552002 1.000001072883606 19.35071182250977 1.660861134529114 16.26922035217285 2.964210987091064 C 13.29235076904297 4.223330974578857 10.61863136291504 6.026061058044434 8.322340965270996 8.322331428527832 C 6.026061058044434 10.61863136291504 4.223330974578857 13.29235076904297 2.964210987091064 16.26922035217285 C 1.660861134529114 19.35071182250977 1.000001072883606 22.6246509552002 1.000001072883606 26.00010108947754 C 1.000001072883606 29.37555122375488 1.660861134529114 32.64949035644531 2.964210987091064 35.73097991943359 C 4.223330974578857 38.70785140991211 6.026061058044434 41.38157272338867 8.322331428527832 43.67786026000977 C 10.61863136291504 45.97414016723633 13.29235076904297 47.77687072753906 16.26922035217285 49.03599166870117 C 19.35071182250977 50.33934020996094 22.6246509552002 51.00020217895508 26.00010108947754 51.00020217895508 M 19.50933074951172 8.735191345214844 L 19.50934028625488 8.735191345214844 C 20.43960189819336 8.73513126373291 21.35686111450195 9.002640724182129 22.16217041015625 9.508951187133789 L 41.64984130859375 21.76783180236816 C 43.11381149291992 22.68869018554688 43.98783111572266 24.27085113525391 43.98783111572266 26.00010108947754 C 43.98783111572266 27.72935104370117 43.11381149291992 29.3115119934082 41.64984130859375 30.23237037658691 L 22.16217041015625 42.49035263061523 C 21.3569507598877 42.99689102172852 20.43940162658691 43.26462936401367 19.50868034362793 43.26462936401367 C 18.23128128051758 43.26459121704102 16.96418190002441 42.754150390625 16.03225135803223 41.86416244506836 C 15.04403114318848 40.92037200927734 14.49980068206787 39.63972091674805 14.49980068206787 38.25810241699219 L 14.49980068206787 13.74210071563721 C 14.49980068206787 12.36039066314697 15.04415130615234 11.07964134216309 16.0325813293457 10.13578128814697 C 16.96459197998047 9.245780944824219 18.23182106018066 8.735291481018066 19.50933074951172 8.735191345214844 M 26.00010108947754 52.00020217895508 C 22.4901008605957 52.00020217895508 19.0851001739502 51.31277084350586 15.87967109680176 49.95698928833008 C 12.78360080718994 48.6474609375 10.00304126739502 46.77276229858398 7.615231037139893 44.38497161865234 C 5.227441310882568 41.99716186523438 3.352741003036499 39.21660232543945 2.043210983276367 36.12053298950195 C 0.6874310970306396 32.91510009765625 1.089477564164554e-06 29.51010131835938 1.089477564164554e-06 26.00010108947754 C 1.089477564164554e-06 22.4901008605957 0.6874310970306396 19.0851001739502 2.043210983276367 15.87967109680176 C 3.352741003036499 12.78360080718994 5.227441310882568 10.00304126739502 7.615231037139893 7.615231037139893 C 10.00304126739502 5.227441310882568 12.78360080718994 3.352741003036499 15.87967109680176 2.043210983276367 C 19.0851001739502 0.6874310970306396 22.4901008605957 1.089477564164554e-06 26.00010108947754 1.089477564164554e-06 C 29.51010131835938 1.089477564164554e-06 32.91510009765625 0.6874310970306396 36.12053298950195 2.043210983276367 C 39.21660232543945 3.352741003036499 41.99716186523438 5.227441310882568 44.38497161865234 7.615231037139893 C 46.77276229858398 10.00304126739502 48.6474609375 12.78360080718994 49.95698928833008 15.87967109680176 C 51.31277084350586 19.0851001739502 52.00020217895508 22.4901008605957 52.00020217895508 26.00010108947754 C 52.00020217895508 29.51010131835938 51.31277084350586 32.91510009765625 49.95698928833008 36.12053298950195 C 48.6474609375 39.21660232543945 46.77276229858398 41.99716186523438 44.38497161865234 44.38497161865234 C 41.99716186523438 46.77276229858398 39.21660232543945 48.6474609375 36.12053298950195 49.95698928833008 C 32.91510009765625 51.31277084350586 29.51010131835938 52.00020217895508 26.00010108947754 52.00020217895508 Z M 19.5094108581543 9.735191345214844 C 18.48657035827637 9.735271453857422 17.47103118896484 10.14488124847412 16.72319030761719 10.85900115966797 C 15.93428134918213 11.61234092712402 15.49980068206787 12.63624095916748 15.49980068206787 13.74210071563721 L 15.49980068206787 38.25810241699219 C 15.49980068206787 39.3638916015625 15.93418121337891 40.38771057128906 16.7229118347168 41.1409797668457 C 17.47062110900879 41.85504150390625 18.48600196838379 42.26460266113281 19.50871086120605 42.26462936401367 C 20.25079154968262 42.26462936401367 20.98416137695312 42.04999160766602 21.62970161437988 41.64390182495117 L 41.11740112304688 29.38590049743652 C 42.28860092163086 28.64920043945312 42.98783111572266 27.38348197937012 42.98783111572266 26.00010108947754 C 42.98783111572266 24.61672019958496 42.28860092163086 23.35100173950195 41.11740112304688 22.61430168151855 L 21.62970161437988 10.35540103912354 C 20.98425102233887 9.949601173400879 20.25107192993164 9.735140800476074 19.5094108581543 9.735191345214844 Z" stroke="none" fill="#fff"/>
  </g>
</svg>
