<svg xmlns="http://www.w3.org/2000/svg" width="419.659" height="640.001" viewBox="0 0 419.659 640.001">
  <g id="Group_3" data-name="Group 3" transform="translate(-1134 -426)">
    <path id="Exclusion_1" data-name="Exclusion 1" d="M-436.341-1446H-856v-640h419.659v640ZM-847.4-1619.2v98.2c0,11.8,3.3,20.994,9.8,27.325,6.866,6.685,17.229,10.075,30.8,10.075s23.934-3.39,30.8-10.075c6.5-6.332,9.8-15.525,9.8-27.325v-98.2h-28V-1519a15.159,15.159,0,0,1-.675,4.841,7.914,7.914,0,0,1-2.175,3.435c-2.01,1.834-5.2,2.725-9.75,2.725a21.4,21.4,0,0,1-5.85-.684,9.244,9.244,0,0,1-3.9-2.091,8.145,8.145,0,0,1-2.175-3.553,16.507,16.507,0,0,1-.675-5.072v-99.8Zm214.2,0V-1486h68.4v-24.4h-40.4V-1541h36.8v-24.4h-36.8v-29.4H-565v-24.4Zm-69.8,84.8,18,48.4h31.2l-22-52.8a29.682,29.682,0,0,0,12.425-12.1,32.764,32.764,0,0,0,3.128-8.206,40.252,40.252,0,0,0,1.047-9.294v-16.8a49.429,49.429,0,0,0-2.053-15.269,24.669,24.669,0,0,0-6.422-10.581,26.662,26.662,0,0,0-11.184-6.156A57.876,57.876,0,0,0-695.2-1619.2H-740V-1486h28v-48.4h9ZM-714-1733h25l4.6,27h28.2L-686-1839.2h-30.8L-746.6-1706h28.2l4.4-27Zm148.2-81.8V-1706h28v-108.8h24.4v-24.4h-76.8v24.4Zm-71.8-24.4V-1706h28v-133.2ZM-810-1754.4l18,48.4h31.2l-22-52.8a29.685,29.685,0,0,0,12.425-12.1,32.761,32.761,0,0,0,3.128-8.206,40.248,40.248,0,0,0,1.047-9.293v-16.8a49.423,49.423,0,0,0-2.053-15.269,24.665,24.665,0,0,0-6.422-10.581,26.656,26.656,0,0,0-11.184-6.156A57.871,57.871,0,0,0-802.2-1839.2H-847V-1706h28v-48.4h9Zm100.6-287.2c-27.073,0-40.8,13.727-40.8,40.8v56.4c0,27.073,13.727,40.8,40.8,40.8s40.8-13.727,40.8-40.8v-56.4C-668.6-2027.873-682.327-2041.6-709.4-2041.6Zm161.2,2.4v24.4h24.4V-1906h28v-108.8h24.4v-24.4Zm-58.8,84.8,18,48.4h31.2l-22-52.8a29.683,29.683,0,0,0,12.425-12.1,32.763,32.763,0,0,0,3.128-8.206,40.258,40.258,0,0,0,1.047-9.294v-16.8a49.427,49.427,0,0,0-2.053-15.269,24.668,24.668,0,0,0-6.422-10.581,26.662,26.662,0,0,0-11.184-6.156A57.876,57.876,0,0,0-599.2-2039.2H-644V-1906h28v-48.4h9Zm-240-84.8V-1906h28v-48h13.8c12.248,0,21.643-3.146,27.925-9.35a28.042,28.042,0,0,0,6.7-10.731A41.772,41.772,0,0,0-768.4-1988v-17.2a49.431,49.431,0,0,0-2.053-15.269,24.667,24.667,0,0,0-6.422-10.581,26.661,26.661,0,0,0-11.184-6.156A57.878,57.878,0,0,0-804.4-2039.2Zm149.4,480.8H-712v-36.8h14.4c3.585,0,6.145.793,7.825,2.425,1.733,1.682,2.575,4.291,2.575,7.975v16c0,3.684-.842,6.292-2.575,7.975C-691.455-1559.193-694.015-1558.4-697.6-1558.4Zm4.6-199h-16.8l8.4-53.6,8.4,53.6Zm-111.6-21H-819v-36.8h14.4c3.585,0,6.145.793,7.825,2.425,1.733,1.683,2.575,4.291,2.575,7.975v16c0,3.684-.842,6.292-2.575,7.975C-798.455-1779.193-801.015-1778.4-804.6-1778.4Zm95.2-149c-4.7,0-7.994-1.268-10.075-3.875-1.834-2.3-2.725-5.675-2.725-10.325v-62c0-4.65.891-8.027,2.725-10.325,2.081-2.608,5.376-3.875,10.075-3.875s7.994,1.267,10.075,3.875c1.834,2.3,2.725,5.675,2.725,10.325v62c0,4.65-.891,8.027-2.725,10.325C-701.406-1928.667-704.7-1927.4-709.4-1927.4Zm-97.4-50.6H-819v-37.2h12.2c3.585,0,6.144.793,7.825,2.425,1.733,1.683,2.575,4.291,2.575,7.975v16.4c0,3.684-.842,6.292-2.575,7.975C-800.656-1978.793-803.215-1978-806.8-1978Zm205.2-.4H-616v-36.8h14.4c3.585,0,6.144.793,7.824,2.425,1.733,1.682,2.575,4.291,2.575,7.975v16c0,3.684-.842,6.293-2.575,7.976C-595.456-1979.193-598.015-1978.4-601.6-1978.4Z" transform="translate(1990 2512)" fill="#030303"/>
  </g>
</svg>
