<svg xmlns="http://www.w3.org/2000/svg" width="12.404" height="22.089" viewBox="0 0 12.404 22.089">
  <g id="Subtraction_7" data-name="Subtraction 7" transform="translate(-3.081 24.87) rotate(-90)" fill="#e3e3e3">
    <path d="M 13.82580661773682 15.18427658081055 C 13.36777687072754 15.18427658081055 12.93825626373291 15.00476741790771 12.61636638641357 14.67880725860596 L 3.576756477355957 5.525786876678467 C 2.984783411026001 4.926559448242188 2.977299690246582 4.135175228118896 3.277499675750732 3.548517227172852 L 13.61849689483643 13.43513679504395 L 13.82579612731934 13.63333702087402 L 14.03311634063721 13.43514728546143 L 24.37472915649414 3.548581838607788 C 24.67474937438965 4.13520622253418 24.66729545593262 4.926567077636719 24.07570648193359 5.525836944580078 L 15.0352668762207 14.67877674102783 C 14.71335697174072 15.00476741790771 14.28383636474609 15.18427658081055 13.82580661773682 15.18427658081055 Z" stroke="none"/>
    <path d="M 13.82580661773682 14.88427734375 C 14.20298671722412 14.88427734375 14.55670642852783 14.73644733428955 14.82182693481445 14.46796703338623 L 23.86221694946289 5.31507682800293 C 24.2237548828125 4.948841094970703 24.32022285461426 4.495190620422363 24.24482536315918 4.087808132171631 L 13.82579612731934 14.04837703704834 L 3.407337427139282 4.087710380554199 C 3.331895112991333 4.495100498199463 3.428424119949341 4.94877290725708 3.790206432342529 5.314986705780029 L 12.82982635498047 14.46800708770752 C 13.0949068069458 14.73644733428955 13.44862651824951 14.88427734375 13.82580661773682 14.88427734375 M 13.82580661773682 15.48427677154541 C 13.28693675994873 15.48427677154541 12.78160667419434 15.27308654785156 12.40290641784668 14.88959693908691 L 3.363306522369385 5.736597061157227 C 2.547476530075073 4.910767078399658 2.674866437911987 3.775426864624023 3.222336530685425 3.080736875534058 L 13.82580661773682 13.21829700469971 L 24.42994689941406 3.080756902694702 C 24.97752571105957 3.775816917419434 25.10402679443359 4.911196708679199 24.28920745849609 5.736597061157227 L 15.24870681762695 14.88959693908691 C 14.8700065612793 15.27308654785156 14.3646764755249 15.48427677154541 13.82580661773682 15.48427677154541 Z" stroke="none" fill="#e3e3e3"/>
  </g>
</svg>
